<svg xmlns="http://www.w3.org/2000/svg" viewBox="0 0 1600 900" preserveAspectRatio="xMidYMid slice">
  <defs>
    <linearGradient id="sky" x1="0" y1="0" x2="0" y2="1">
      <stop offset="0%" stop-color="#0f172a" />
      <stop offset="100%" stop-color="#111827" />
    </linearGradient>
    <linearGradient id="field" x1="0" y1="0" x2="1" y2="0">
      <stop offset="0%" stop-color="#164e32" />
      <stop offset="100%" stop-color="#134e4a" />
    </linearGradient>
  </defs>
  <rect width="1600" height="900" fill="url(#sky)" />
  <path d="M0 520 C 400 480, 800 560, 1600 520 L1600 900 L0 900 Z" fill="#0f172a" />
  <path d="M0 620 C 400 580, 800 660, 1600 620 L1600 900 L0 900 Z" fill="#11312b" />
  <path d="M0 700 C 400 680, 800 760, 1600 700 L1600 900 L0 900 Z" fill="url(#field)" />
  <circle cx="1350" cy="180" r="70" fill="#facc15" opacity="0.9" />
  <g opacity="0.6">
    <path d="M120 560 Q 280 520 440 560 T760 560" stroke="#ffffff30" stroke-width="12" fill="none" />
    <path d="M80 660 Q 260 620 460 660 T820 660" stroke="#ffffff20" stroke-width="10" fill="none" />
    <path d="M280 760 Q 500 730 720 760 T1140 760" stroke="#ffffff10" stroke-width="8" fill="none" />
  </g>
</svg>
